<svg xmlns="http://www.w3.org/2000/svg" width="200" height="200" class="icon" viewBox="0 0 1024 1024"><path d="m768 439.467-89.6-89.6c-12.8-12.8-29.867-12.8-38.4 0-12.8 12.8-12.8 29.866 0 38.4l89.6 89.6c4.267 4.266 4.267 8.533 8.533 12.8H435.2c-17.067 0-25.6 12.8-25.6 25.6s12.8 25.6 25.6 25.6h302.933c-4.266 8.533-8.533 12.8-12.8 12.8l-89.6 89.6c-12.8 12.8-12.8 29.866 0 38.4 4.267 4.266 12.8 8.533 21.334 8.533s12.8-4.267 21.333-8.533l89.6-85.334c42.667-46.933 42.667-115.2 0-157.866z"/><path d="M558.933 823.467H358.4c-42.667 0-76.8-34.134-76.8-76.8V290.133c0-42.666 34.133-76.8 76.8-76.8h200.533c17.067 0 29.867-12.8 29.867-25.6s-12.8-25.6-29.867-25.6H358.4c-34.133-4.266-68.267 8.534-93.867 34.134-25.6 25.6-38.4 55.466-38.4 93.866v456.534c0 72.533 59.734 132.266 132.267 132.266h200.533c17.067 0 29.867-12.8 29.867-29.866s-17.067-25.6-29.867-25.6z"/></svg>