<svg xmlns="http://www.w3.org/2000/svg" width="200" height="200" class="icon" viewBox="0 0 1024 1024"><path d="M512.505 961.306c-246.596 0-449.307-200.62-449.307-449.306 0-12.539 8.36-20.898 20.898-20.898s20.898 8.36 20.898 20.898c0 225.698 183.902 407.51 407.51 407.51 167.184 0 315.56-100.31 378.254-254.955 4.18-10.449 16.718-16.718 27.167-12.539 10.449 4.18 16.718 16.719 12.539 27.168-68.964 171.363-231.968 282.122-417.96 282.122zm428.408-428.408c-12.539 0-20.898-8.36-20.898-20.898 0-225.698-181.812-407.51-407.51-407.51-175.543 0-332.278 112.849-386.613 280.032-4.18 10.45-14.628 16.719-27.167 12.54-10.449-4.18-16.718-14.63-12.539-27.168 60.604-183.902 231.968-307.2 426.319-307.2C761.19 62.694 961.81 263.314 961.81 512c0 12.539-8.36 20.898-20.898 20.898z"/><path d="M140.52 532.898H25.583c-14.628 0-20.898-16.718-10.449-27.167l52.245-52.245c8.36-8.36 20.898-8.36 29.257 0l52.245 52.245c12.539 10.449 4.18 27.167-8.36 27.167M882.398 512h112.85c14.628 0 20.897 16.718 10.448 27.167l-50.155 52.245c-8.359 8.36-20.898 8.36-29.257 0l-54.335-52.245C863.59 528.718 869.86 512 882.4 512M721.484 409.6H301.435c-22.988 0-39.706-18.808-39.706-39.706v-87.772c0-22.987 18.808-39.706 39.706-39.706h420.05c22.987 0 39.705 18.808 39.705 39.706v85.682c0 22.988-16.718 41.796-39.706 41.796zm-2.09-127.478-417.959 2.09 2.09 85.682 417.96-2.09v-85.682z"/><path d="M441.452 346.906H345.32c-12.539 0-20.898-8.36-20.898-20.898s8.36-20.898 20.898-20.898h94.04c12.54 0 20.899 8.36 20.899 20.898s-8.36 20.898-18.808 20.898zm280.032 250.776H301.435c-22.988 0-39.706-18.809-39.706-39.706v-85.682c0-22.988 18.808-39.706 39.706-39.706h420.05c22.987 0 39.705 18.808 39.705 39.706v85.682c0 20.897-16.718 39.706-39.706 39.706zm-2.09-127.478-420.049 2.09 2.09 85.682 417.96-2.09v-85.682z"/><path d="M441.452 534.988H345.32c-12.539 0-20.898-8.36-20.898-20.898s8.36-20.898 20.898-20.898h94.04c12.54 0 20.899 8.359 20.899 20.898s-8.36 20.898-18.808 20.898zm280.032 250.775H301.435c-22.988 0-39.706-18.808-39.706-39.706v-85.681c0-22.988 18.808-39.707 39.706-39.707h420.05c22.987 0 39.705 18.809 39.705 39.707v85.681c0 20.898-16.718 39.706-39.706 39.706zm-2.09-127.477-420.049 2.09 2.09 85.681 417.96-2.09v-85.681z"/><path d="M441.452 723.07H345.32c-12.539 0-20.898-8.36-20.898-20.899s8.36-20.898 20.898-20.898h94.04c12.54 0 20.899 8.36 20.899 20.898s-8.36 20.898-18.808 20.898z"/></svg>