<svg xmlns="http://www.w3.org/2000/svg" width="128" height="128" class="icon" viewBox="0 0 1024 1024"><path d="M632.206 232.448c27.62 25.145 41.415 59.904 41.415 104.277 0 32.54-9.13 61.383-27.363 86.528-6.912 8.391-27.136 27.364-60.644 56.946-15.303 12.829-26.652 26.14-34.02 39.936-9.358 15.787-14.05 34.02-14.05 54.699v17.038h-59.905v-17.038c0-24.605 4.693-46.08 14.052-64.313 8.874-21.191 33.763-49.778 74.666-85.789 9.87-9.87 18.262-18.744 25.174-26.624 14.279-18.744 21.447-38.2 21.447-58.424 0-29.583-8.135-52.509-24.406-68.78-17.237-17.236-41.67-25.884-73.216-25.884-36.494 0-63.857 12.09-82.09 36.239-15.787 21.22-23.666 49.55-23.666 85.049h-59.164c0-51.257 14.535-92.672 43.633-124.246 30.578-32.54 71.993-48.81 124.246-48.81 48.298-.029 86.272 13.056 113.891 39.196zm-92.444 423.765c8.362 8.391 12.572 18.717 12.572 31.062 0 12.828-4.21 23.41-12.572 31.772-9.387 8.391-19.968 12.573-31.801 12.573-12.829 0-23.41-4.182-31.801-12.573a43.35 43.35 0 0 1-13.312-31.772c0-12.829 4.437-23.154 13.312-31.062 7.88-8.39 18.489-12.6 31.8-12.6 12.8 0 23.41 4.21 31.802 12.6z"/><path d="M512 56.889c250.937 0 455.111 204.174 455.111 455.111S762.937 967.111 512 967.111 56.889 762.937 56.889 512 261.063 56.889 512 56.889M512 0C229.262 0 0 229.234 0 512s229.262 512 512 512c282.766 0 512-229.234 512-512S794.766 0 512 0z"/></svg>