<svg xmlns="http://www.w3.org/2000/svg" width="200" height="200" class="icon" viewBox="0 0 1024 1024"><path d="M437.333 85.333h-320c-17.066 0-32 14.934-32 32v320c0 17.067 14.934 32 32 32h320c17.067 0 32-14.933 32-32v-320c0-17.066-14.933-32-32-32zm-32 320h-256v-256h256v256zm501.334-320h-320c-17.067 0-32 14.934-32 32v320c0 17.067 14.933 32 32 32h320c17.066 0 32-14.933 32-32v-320c0-17.066-14.934-32-32-32zm-32 320h-256v-256h256v256zM437.333 554.667h-320c-17.066 0-32 14.933-32 32v320c0 17.066 14.934 32 32 32h320c17.067 0 32-14.934 32-32v-320c0-17.067-14.933-32-32-32zm-32 320h-256v-256h256v256zm501.334-320h-320c-17.067 0-32 14.933-32 32v320c0 17.066 14.933 32 32 32h320c17.066 0 32-14.934 32-32v-320c0-17.067-14.934-32-32-32zm-32 320h-256v-256h256v256z"/></svg>