<svg xmlns="http://www.w3.org/2000/svg" width="200" height="200" class="icon" viewBox="0 0 1024 1024"><path d="M85.333 213.333A42.667 42.667 0 0 1 128 170.667h768a42.667 42.667 0 0 1 42.667 42.666v512A42.667 42.667 0 0 1 896 768H128a42.667 42.667 0 0 1-42.667-42.667v-512zM170.667 256v426.667h682.666V256H170.667zm128 576h426.666v85.333H298.667V832z"/><path d="M417.835 375.168a42.667 42.667 0 0 1 60.33 0L576 473.003l85.333-85.334L721.664 448 606.165 563.499a42.667 42.667 0 0 1-60.33 0L448 465.664l-85.333 85.333-60.331-60.33 115.499-115.499z"/></svg>