<svg xmlns="http://www.w3.org/2000/svg" width="200" height="200" class="icon" viewBox="0 0 1024 1024"><path d="M522.656 388.064a32 32 0 0 0-32 32v160a32 32 0 0 0 64 0v-160a32 32 0 0 0-32-32m0 288a32 32 0 1 0 0 64 32 32 0 0 0 0-64"/><path d="M714.656 795.616H203.072l127.584-221.888 33.152-57.664L522.656 239.84l158.816 276.224 33.184 57.696 127.552 221.856H714.656zm194.528-11.968L566.528 187.712C556.384 170.112 540.416 160 522.656 160s-33.728 10.112-43.84 27.712l-342.72 595.936c-10.048 17.568-10.784 36.48-1.92 51.84 8.896 15.328 25.6 24.128 45.824 24.128h685.344c20.16 0 36.864-8.8 45.76-24.128 8.896-15.36 8.192-34.24-1.92-51.84z"/></svg>